<?xml version="1.0" encoding="UTF-8" standalone="no"?>
<svg
   xmlns:dc="http://purl.org/dc/elements/1.1/"
   xmlns:cc="http://creativecommons.org/ns#"
   xmlns:rdf="http://www.w3.org/1999/02/22-rdf-syntax-ns#"
   xmlns:svg="http://www.w3.org/2000/svg"
   xmlns="http://www.w3.org/2000/svg"
   width="800"
   height="320"
   viewBox="0 0 211.66666 84.666667"
   version="1.1"
   id="svg8">
  <defs
     id="defs2" />
  <metadata
     id="metadata5">
    <rdf:RDF>
      <cc:Work
         rdf:about="">
        <dc:format>image/svg+xml</dc:format>
        <dc:type
           rdf:resource="http://purl.org/dc/dcmitype/StillImage" />
        <dc:title></dc:title>
      </cc:Work>
    </rdf:RDF>
  </metadata>
  <rect
     y="-1.3764648e-06"
     x="0"
     height="84.666664"
     width="211.66666"
     id="rect827"
     style="fill:#f9f9f9;fill-opacity:1;stroke-width:1.15142465" />
  <g
     style="opacity:1"
     id="layer1"
     transform="matrix(0.83458195,0,0,0.83458195,17.506744,-152.54144)">
    <g
       id="g4540"
       transform="translate(-6.6869497,-1.993665)">
      <path
         id="path836"
         transform="matrix(0.31749996,0,0,0.31749996,-14.479703,184.69366)"
         d="M 400,18.357422 C 301.45747,79.158847 267.72852,138.82557 267.72852,183.66602 c 0,68.00289 63.65297,89.92213 103.89062,70.25781 l -17.02734,47.71875 h 90.8164 l -17.05078,-47.7832 C 468.5771,273.56413 532.27148,252.04677 532.27148,183.66602 532.27148,138.82557 498.54294,79.158847 400,18.357422 Z"
         style="opacity:1;fill:none;fill-opacity:1;stroke:#646464;stroke-width:5.6692915;stroke-miterlimit:4;stroke-dasharray:none;stroke-opacity:1" />
    </g>
  </g>
  <g
     id="text826"
     style="font-style:normal;font-weight:normal;font-size:15.15409279px;line-height:1.25;font-family:sans-serif;letter-spacing:0px;word-spacing:0px;fill:#000000;fill-opacity:1;stroke:none;stroke-width:0.37885231"
     aria-label="ace" />
  <g
     transform="matrix(0.95799754,0,0,0.95799754,4.4491651,1.930634)"
     id="text854"
     style="font-style:normal;font-weight:normal;font-size:38.92736053px;line-height:1.25;font-family:sans-serif;letter-spacing:0px;word-spacing:0px;opacity:1;fill:#646464;fill-opacity:1;stroke:none;stroke-width:0.97318399"
     aria-label="ace">
    <path
       id="path842"
       style="font-style:normal;font-variant:normal;font-weight:500;font-stretch:normal;font-family:'Dancing Script';-inkscape-font-specification:'Dancing Script Medium';fill:#646464;fill-opacity:1;stroke-width:0.97318399"
       d="m 86.303793,53.584022 q -1.206748,0 -2.024223,-0.817474 -0.856402,-0.778547 -0.856402,-2.413496 0,-1.401385 0.622838,-2.997407 0.622838,-1.634949 1.712804,-3.192044 1.089966,-1.596022 2.452424,-2.880624 1.401385,-1.323531 2.919552,-2.102078 1.557094,-0.778547 3.075261,-0.778547 1.518167,0 2.530279,0.817474 1.012111,0.778548 1.012111,2.102078 0,0.973184 -0.544983,1.32353 -0.506056,0.350346 -1.362458,0.350346 0.07785,-0.311419 0.116783,-0.661765 0.07785,-0.389273 0.07785,-0.700692 0,-0.89533 -0.428201,-1.518167 -0.428201,-0.661765 -1.479239,-0.661765 -1.089966,0 -2.21886,0.778547 -1.128893,0.73962 -2.179932,2.024223 -1.051039,1.245675 -1.868513,2.724915 -0.817475,1.479239 -1.284603,2.919552 -0.467129,1.440312 -0.467129,2.569206 0,1.518167 1.051039,1.518167 0.895329,0 1.946368,-0.817475 1.051039,-0.856402 2.141005,-2.141005 1.128893,-1.32353 2.141005,-2.724915 1.012111,-1.401385 1.790658,-2.569206 0.15571,-0.233564 0.194637,-0.233564 0.233564,0.03893 0.583911,0.15571 0.389273,0.116782 0.661765,0.311418 0.272491,0.194637 0.272491,0.506056 0,0.350346 -0.350346,0.973184 -0.350346,0.58391 -0.778547,1.362458 -0.428201,0.778547 -0.778547,1.596021 -0.350347,0.778548 -0.350347,1.47924 0,0.583911 0.311419,1.167821 0.311419,0.544983 1.012112,0.544983 1.051038,0 2.763842,-1.518167 1.712813,-1.557094 3.464543,-4.632356 l 0.38927,0.389274 q -0.81747,2.102077 -2.10208,3.698099 -1.284605,1.596022 -2.763844,2.491351 -1.440313,0.895329 -2.841698,0.895329 -1.440312,0 -2.141004,-0.856402 -0.661765,-0.856402 -0.661765,-1.868513 0,-0.233564 0.03893,-0.506056 0.03893,-0.311418 0.07785,-0.622837 -1.673877,2.257787 -3.075262,3.38668 -1.362458,1.128893 -2.80277,1.128893 z" />
    <path
       id="path844"
       style="font-style:normal;font-variant:normal;font-weight:500;font-stretch:normal;font-family:'Dancing Script';-inkscape-font-specification:'Dancing Script Medium';fill:#646464;fill-opacity:1;stroke-width:0.97318399"
       d="m 105.68959,53.934369 q -1.86852,0 -3.11419,-1.245676 -1.24568,-1.245675 -1.24568,-3.737026 0,-1.946368 0.73962,-3.775954 0.77855,-1.868514 2.02422,-3.347753 1.24568,-1.47924 2.76385,-2.335642 1.51816,-0.895329 2.9974,-0.895329 1.59603,0 2.17994,0.934256 0.58391,0.934257 0.58391,1.946368 0,1.128894 -0.54499,1.985296 -0.50605,0.856402 -1.40138,0.856402 -0.66177,0 -1.12889,-0.583911 0.58391,-0.311419 1.01211,-1.245675 0.4282,-0.973184 0.4282,-1.829586 0,-0.467129 -0.19464,-0.700693 -0.15571,-0.272491 -0.66176,-0.272491 -1.05104,0 -2.17994,0.934256 -1.08996,0.934257 -2.06315,2.413497 -0.93425,1.479239 -1.55709,3.114189 -0.58391,1.634949 -0.58391,3.075261 0,1.206748 0.58391,2.21886 0.58391,1.012111 2.25779,1.012111 1.55709,0 3.11418,-0.856402 1.59603,-0.856402 2.95848,-2.452424 1.36246,-1.596021 2.17994,-3.737026 l 0.50605,0.389273 q -0.89533,2.335642 -2.45242,4.204155 -1.5571,1.829586 -3.42561,2.880625 -1.86851,1.051039 -3.77595,1.051039 z" />
    <path
       id="path846"
       style="font-style:normal;font-variant:normal;font-weight:500;font-stretch:normal;font-family:'Dancing Script';-inkscape-font-specification:'Dancing Script Medium';fill:#646464;fill-opacity:1;stroke-width:0.97318399"
       d="m 118.41877,53.46724 q -2.37457,0 -3.58132,-1.32353 -1.16782,-1.284603 -1.16782,-3.192043 0,-1.751732 0.8564,-3.6981 0.89533,-1.946368 2.33564,-3.659172 1.47924,-1.712803 3.23097,-2.763842 1.75173,-1.089966 3.46454,-1.089966 0.89533,0 1.63495,0.467128 0.77854,0.467128 0.77854,1.907441 0,1.479239 -0.89533,2.80277 -0.8564,1.284603 -2.29671,2.296714 -1.40138,1.012111 -3.11419,1.673876 -1.67387,0.622838 -3.34775,0.778548 -0.0779,0.389273 -0.11678,0.739619 -0.0389,0.350347 -0.0389,0.661766 0,0.58391 0.11678,1.16782 0.15571,0.583911 0.50606,1.089967 0.35034,0.467128 0.93425,0.739619 0.62284,0.272492 1.51817,0.272492 1.67388,0 3.30883,-0.934257 1.63495,-0.973184 3.03633,-2.530278 1.40139,-1.557095 2.37457,-3.425608 l 0.46713,0.350346 q -1.05104,2.335642 -2.68599,4.048446 -1.59602,1.712804 -3.50346,2.64706 -1.86852,0.973184 -3.81488,0.973184 z m -1.90744,-6.539796 q 1.05103,-0.350346 2.37456,-1.012112 1.32353,-0.700692 2.53028,-1.634949 1.24568,-0.934256 2.02423,-2.06315 0.81747,-1.128893 0.81747,-2.374569 0,-0.428201 -0.15571,-0.661765 -0.15571,-0.233564 -0.66176,-0.233564 -0.93426,0 -1.9853,0.73962 -1.05104,0.700692 -2.02422,1.868513 -0.97319,1.167821 -1.75173,2.569206 -0.77855,1.401385 -1.16782,2.80277 z" />
  </g>
</svg>
